<svg xmlns="http://www.w3.org/2000/svg" viewBox="0 0 64 64" role="img" aria-label="Orchidea Dessert">
  <defs>
    <linearGradient id="g" x1="0" y1="0" x2="1" y2="1">
      <stop offset="0" stop-color="#c39a3f"/>
      <stop offset="1" stop-color="#8a6522"/>
    </linearGradient>
  </defs>
  <rect width="64" height="64" rx="16" fill="#f8f1e3"/>
  <g fill="none" stroke="url(#g)" stroke-width="2.4" stroke-linecap="round" stroke-linejoin="round">
    <!-- orchid blossom -->
    <path d="M32 20c-4.2 0-7.4 3-7.4 7 0 4.6 4.2 8.8 7.4 11 3.2-2.2 7.4-6.4 7.4-11 0-4-3.2-7-7.4-7Z" fill="#f3e6c4" fill-opacity="0.6"/>
    <path d="M24.6 27c-3.6-1.2-7 .4-8.2 3.6M39.4 27c3.6-1.2 7 .4 8.2 3.6"/>
    <circle cx="32" cy="27.5" r="2.1" fill="url(#g)" stroke="none"/>
    <!-- curved stem flourish -->
    <path d="M32 38c0 5-3 8.5-9 10.5M32 38c0 4 2.2 7 6.5 8.8"/>
  </g>
</svg>
